<svg width="24" height="24" viewBox="0 0 24 24" fill="none" xmlns="http://www.w3.org/2000/svg">
<path d="M13.8 8.3999V11.0999M10.2 11.0999V8.3999M8.40269 12.0242C8.36219 11.5256 8.78339 11.0999 9.31799 11.0999H14.682C15.2166 11.0999 15.6378 11.5256 15.5973 12.0242L15.4866 13.3859C15.4043 14.374 15.056 15.3213 14.4786 16.1273L14.1186 16.634C13.943 16.8738 13.7128 17.0684 13.447 17.2016C13.1813 17.3348 12.8876 17.4027 12.5904 17.3999H11.4096C11.1123 17.4027 10.8187 17.3348 10.553 17.2016C10.2872 17.0684 10.057 16.8738 9.88139 16.634L9.52139 16.1273C8.94401 15.3213 8.59568 14.374 8.51339 13.3859L8.40269 12.0242Z" stroke="white" stroke-width="2" stroke-linecap="round" stroke-linejoin="round"/>
<path d="M15.6 20.289C18.7788 18.8976 21 15.7188 21 12.0198C21 7.0383 16.9707 3 12 3C7.0293 3 3 7.0383 3 12.0198C3 16.698 6.5523 20.5437 11.1009 20.9964C11.5959 21.045 12 20.6364 12 20.1387V17.4324" stroke="white" stroke-width="2" stroke-linecap="round" stroke-linejoin="round"/>
</svg>
