<svg width="24" height="24" viewBox="0 0 24 24" fill="none" xmlns="http://www.w3.org/2000/svg">
<path d="M11.6105 14.6445C11.1839 14.6457 10.775 14.8124 10.4733 15.1082C10.1716 15.404 10.0014 15.8049 10 16.2233V19.452C10 19.8709 10.1697 20.2727 10.4717 20.5689C10.7737 20.8651 11.1833 21.0315 11.6105 21.0315C12.0376 21.0315 12.4472 20.8651 12.7492 20.5689C13.0513 20.2727 13.2209 19.8709 13.2209 19.452V19.4198V19.4213V16.224C13.2197 15.8057 13.0499 15.4049 12.7485 15.109C12.447 14.8131 12.0385 14.6461 11.612 14.6445H11.6105Z" fill="white"/>
<path d="M17.4364 4.97325H14.3371C13.9616 3.8205 12.8788 3 11.6002 3C10.3216 3 9.23953 3.8205 8.86941 4.953L8.86406 4.97325H5.80524C5.59167 4.97325 5.38686 5.05646 5.23585 5.20456C5.08484 5.35267 5 5.55355 5 5.763C5 5.97245 5.08484 6.17333 5.23585 6.32144C5.38686 6.46954 5.59167 6.55275 5.80524 6.55275H8.90459C9.10953 7.227 9.55459 7.779 10.1396 8.12475L10.1518 8.1315C7.95635 8.78175 6.38259 10.7415 6.36882 13.0642V17.2103C6.37201 17.5547 6.51288 17.8841 6.76113 18.1277C7.00938 18.3713 7.34519 18.5097 7.69635 18.513H8.78376V16.263C8.78376 15.5197 9.08484 14.8068 9.62077 14.2812C10.1567 13.7555 10.8836 13.4602 11.6415 13.4602C12.3994 13.4602 13.1263 13.7555 13.6622 14.2812C14.1981 14.8068 14.4992 15.5197 14.4992 16.263V18.513H15.5858C15.9373 18.5103 16.2736 18.3721 16.5223 18.1284C16.7709 17.8847 16.9119 17.555 16.9149 17.2103V13.1047C16.9144 11.9976 16.5495 10.9202 15.8745 10.0328C15.1995 9.14541 14.2505 8.49541 13.1686 8.1795L13.1319 8.1705C13.7299 7.82057 14.173 7.26423 14.3745 6.6105L14.3799 6.591H17.4792C17.6926 6.59041 17.8971 6.50701 18.048 6.35903C18.1988 6.21105 18.2839 6.01052 18.2845 5.80125C18.2762 5.58418 18.1846 5.37821 18.028 5.22454C17.8715 5.07087 17.6615 4.98085 17.4402 4.9725H17.4387L17.4364 4.97325ZM11.6002 7.38C11.2817 7.38 10.9703 7.28736 10.7054 7.11381C10.4406 6.94025 10.2342 6.69356 10.1123 6.40495C9.9904 6.11633 9.95851 5.79875 10.0207 5.49235C10.0828 5.18596 10.2362 4.90452 10.4614 4.68362C10.6866 4.46273 10.9736 4.31229 11.286 4.25135C11.5984 4.1904 11.9222 4.22168 12.2165 4.34123C12.5108 4.46078 12.7623 4.66323 12.9392 4.92298C13.1162 5.18272 13.2106 5.4881 13.2106 5.8005L13.2114 5.8455C13.2114 6.693 12.5109 7.38 11.6468 7.38L11.5986 7.37925H11.6009L11.6002 7.38Z" fill="white"/>
</svg>
