<svg width="16" height="16" viewBox="0 0 16 16" fill="none" xmlns="http://www.w3.org/2000/svg">
<rect x="0.200017" y="0.200017" width="15.6013" height="15.6013" fill="#5C6A77" stroke="#F5F5F5" stroke-width="0.400034"/>
<path d="M8.90001 6.19995V7.54995M7.10001 7.54995V6.19995M6.20136 8.0121C6.18111 7.7628 6.39171 7.54995 6.65901 7.54995H9.34101C9.60831 7.54995 9.81891 7.7628 9.79866 8.0121L9.74331 8.69295C9.70216 9.18698 9.528 9.66064 9.23931 10.0637L9.05931 10.317C8.9715 10.4369 8.85639 10.5342 8.72352 10.6008C8.59065 10.6674 8.44383 10.7014 8.29521 10.7H7.70481C7.55619 10.7014 7.40937 10.6674 7.2765 10.6008C7.14362 10.5342 7.02852 10.4369 6.94071 10.317L6.76071 10.0637C6.47202 9.66064 6.29786 9.18698 6.25671 8.69295L6.20136 8.0121Z" stroke="white" stroke-width="0.8" stroke-linecap="round" stroke-linejoin="round"/>
<path d="M9.8 12.1445C11.3894 11.4488 12.5 9.8594 12.5 8.0099C12.5 5.51915 10.4853 3.5 8 3.5C5.51465 3.5 3.5 5.51915 3.5 8.0099C3.5 10.349 5.27615 12.2719 7.55045 12.4982C7.79795 12.5225 8 12.3182 8 12.0694V10.7162" stroke="white" stroke-width="0.8" stroke-linecap="round" stroke-linejoin="round"/>
</svg>
