<svg width="30" height="30" viewBox="0 0 30 30" fill="none" xmlns="http://www.w3.org/2000/svg">
<circle cx="15" cy="15" r="14.5" fill="white" stroke="#D5D5D5"/>
<path d="M15 6V24M24 6.6V23.4C24 23.5591 23.9368 23.7117 23.8243 23.8243C23.7117 23.9368 23.5591 24 23.4 24H6.6C6.44087 24 6.28826 23.9368 6.17574 23.8243C6.06321 23.7117 6 23.5591 6 23.4V6.6C6 6.44087 6.06321 6.28826 6.17574 6.17574C6.28826 6.06321 6.44087 6 6.6 6H23.4C23.5591 6 23.7117 6.06321 23.8243 6.17574C23.9368 6.28826 24 6.44087 24 6.6Z" stroke="#202123" stroke-width="1.5" stroke-linecap="round" stroke-linejoin="round"/>
<path d="M9 15L10.5 13L12 15M18 15L19.5 17L21 15" stroke="#202123" stroke-width="1.5" stroke-linecap="round" stroke-linejoin="round"/>
</svg>
