<svg width="48" height="48" viewBox="0 0 48 48" fill="none" xmlns="http://www.w3.org/2000/svg">
<path d="M19.9931 22.0069C21.0558 23.0696 22.4971 23.6667 24 23.6667C24.7442 23.6667 25.481 23.5201 26.1685 23.2353C26.8561 22.9505 27.4807 22.5331 28.0069 22.0069C28.5331 21.4807 28.9505 20.8561 29.2353 20.1685C29.5201 19.481 29.6667 18.7442 29.6667 18C29.6667 16.4971 29.0696 15.0558 28.0069 13.9931C26.9442 12.9304 25.5029 12.3333 24 12.3333C22.4971 12.3333 21.0558 12.9304 19.9931 13.9931C18.9304 15.0558 18.3333 16.4971 18.3333 18C18.3333 19.5029 18.9304 20.9442 19.9931 22.0069ZM24 42.9901C23.9691 42.9544 23.937 42.9172 23.9035 42.8783C23.5244 42.4383 22.9818 41.7969 22.3301 40.9939C21.0262 39.3873 19.2888 37.1378 17.5526 34.5646C15.8152 31.9895 14.0874 29.1024 12.7959 26.2196C11.5005 23.3281 10.6667 20.4901 10.6667 18C10.6667 14.4638 12.0714 11.0724 14.5719 8.57191C17.0724 6.07142 20.4638 4.66667 24 4.66667C27.5362 4.66667 30.9276 6.07142 33.4281 8.57191C35.9286 11.0724 37.3333 14.4638 37.3333 18C37.3333 20.4901 36.4995 23.3281 35.2041 26.2196C33.9126 29.1024 32.1848 31.9895 30.4474 34.5646C28.7112 37.1378 26.9738 39.3873 25.6699 40.9939C25.0182 41.7969 24.4756 42.4383 24.0965 42.8783C24.063 42.9172 24.0309 42.9544 24 42.9901Z" fill="#0083D6" stroke="white" stroke-width="1.33333"/>
</svg>
