<svg width="24" height="24" viewBox="0 0 24 24" fill="none" xmlns="http://www.w3.org/2000/svg">
<path d="M2.9 6.21429C2.9 7.07257 3.43307 7.80613 4.18571 8.10218V13.2857C4.18571 17.5982 7.68751 21.1 12 21.1C16.3125 21.1 19.8143 17.5982 19.8143 13.2857V8.10218C20.5669 7.80615 21.1 7.07257 21.1 6.21429V4.92858C21.1 3.80781 20.1922 2.9 19.0714 2.9H4.92857C3.8078 2.9 2.9 3.80781 2.9 4.92858V6.21429ZM19.6143 6.21429C19.6143 6.51425 19.3714 6.75715 19.0714 6.75715H4.92857C4.62861 6.75715 4.38571 6.51425 4.38571 6.21429V4.92858C4.38571 4.62862 4.62861 4.38572 4.92857 4.38572H19.0714C19.3714 4.38572 19.6143 4.62862 19.6143 4.92858V6.21429ZM5.67143 13.2857V8.24287H18.3286V13.2857C18.3286 16.7783 15.4925 19.6143 12 19.6143C8.50748 19.6143 5.67143 16.7783 5.67143 13.2857ZM16.6 13.9286C16.6 11.3903 14.5382 9.32859 12 9.32859C9.46174 9.32859 7.4 11.3903 7.4 13.9286C7.4 16.4669 9.46174 18.5286 12 18.5286C14.5383 18.5286 16.6 16.4669 16.6 13.9286ZM8.88571 13.9286C8.88571 12.2095 10.2809 10.8143 12 10.8143C13.7191 10.8143 15.1143 12.2095 15.1143 13.9286C15.1143 15.6477 13.7191 17.0429 12 17.0429C10.2809 17.0429 8.88571 15.6477 8.88571 13.9286ZM13.4464 13.3464C13.036 13.3464 12.7036 13.6788 12.7036 14.0893C12.7036 14.3 12.5322 14.4714 12.3214 14.4714C11.911 14.4714 11.5786 14.8039 11.5786 15.2143C11.5786 15.6247 11.911 15.9571 12.3214 15.9571C13.3522 15.9571 14.1893 15.12 14.1893 14.0893C14.1893 13.6788 13.8568 13.3464 13.4464 13.3464Z" fill="white" stroke="white" stroke-width="0.2"/>
</svg>
