<svg width="400" height="225" viewBox="0 0 400 225" fill="none" xmlns="http://www.w3.org/2000/svg">
  <!-- Background -->
  <rect width="400" height="225" fill="#E5E7EB"/>

  <!-- Factory building outline -->
  <rect x="50" y="80" width="120" height="120" fill="#9CA3AF" fill-opacity="0.3" stroke="#6B7280" stroke-width="2"/>
  <rect x="230" y="100" width="120" height="100" fill="#9CA3AF" fill-opacity="0.3" stroke="#6B7280" stroke-width="2"/>

  <!-- Windows -->
  <rect x="70" y="100" width="25" height="25" fill="#374151"/>
  <rect x="105" y="100" width="25" height="25" fill="#374151"/>
  <rect x="140" y="100" width="25" height="25" fill="#374151"/>

  <rect x="70" y="135" width="25" height="25" fill="#374151"/>
  <rect x="105" y="135" width="25" height="25" fill="#374151"/>
  <rect x="140" y="135" width="25" height="25" fill="#374151"/>

  <rect x="250" y="120" width="25" height="25" fill="#374151"/>
  <rect x="290" y="120" width="25" height="25" fill="#374151"/>

  <rect x="250" y="155" width="25" height="25" fill="#374151"/>
  <rect x="290" y="155" width="25" height="25" fill="#374151"/>

  <!-- Chimney -->
  <rect x="180" y="40" width="20" height="40" fill="#6B7280"/>

  <!-- Smoke -->
  <circle cx="190" cy="30" r="8" fill="#9CA3AF" fill-opacity="0.6"/>
  <circle cx="195" cy="20" r="10" fill="#9CA3AF" fill-opacity="0.5"/>
  <circle cx="185" cy="15" r="7" fill="#9CA3AF" fill-opacity="0.4"/>

  <!-- Coming soon overlay -->
  <rect width="400" height="225" fill="white" fill-opacity="0.5"/>

  <!-- Coming soon text -->
  <rect x="150" y="95" width="100" height="35" rx="4" fill="#6B7280"/>
  <text x="200" y="120" text-anchor="middle" font-family="Arial, sans-serif" font-size="16" font-weight="bold" fill="white">준비중</text>

  <!-- Title -->
  <text x="200" y="15" text-anchor="middle" font-family="Arial, sans-serif" font-size="12" font-weight="bold" fill="#374151">공장 템플릿</text>
</svg>
