<svg width="400" height="225" viewBox="0 0 400 225" fill="none" xmlns="http://www.w3.org/2000/svg">
  <!-- Background -->
  <rect width="400" height="225" fill="#F3F4F6"/>

  <!-- Grid lines -->
  <line x1="0" y1="75" x2="400" y2="75" stroke="#E5E7EB" stroke-width="1"/>
  <line x1="0" y1="150" x2="400" y2="150" stroke="#E5E7EB" stroke-width="1"/>
  <line x1="133" y1="0" x2="133" y2="225" stroke="#E5E7EB" stroke-width="1"/>
  <line x1="266" y1="0" x2="266" y2="225" stroke="#E5E7EB" stroke-width="1"/>

  <!-- Parking spots -->
  <rect x="20" y="20" width="80" height="40" rx="4" fill="#10B981" fill-opacity="0.3" stroke="#059669" stroke-width="2"/>
  <rect x="20" y="95" width="80" height="40" rx="4" fill="#10B981" fill-opacity="0.3" stroke="#059669" stroke-width="2"/>
  <rect x="20" y="170" width="80" height="40" rx="4" fill="#10B981" fill-opacity="0.3" stroke="#059669" stroke-width="2"/>

  <rect x="160" y="20" width="80" height="40" rx="4" fill="#10B981" fill-opacity="0.3" stroke="#059669" stroke-width="2"/>
  <rect x="160" y="95" width="80" height="40" rx="4" fill="#10B981" fill-opacity="0.3" stroke="#059669" stroke-width="2"/>
  <rect x="160" y="170" width="80" height="40" rx="4" fill="#10B981" fill-opacity="0.3" stroke="#059669" stroke-width="2"/>

  <rect x="300" y="20" width="80" height="40" rx="4" fill="#10B981" fill-opacity="0.3" stroke="#059669" stroke-width="2"/>
  <rect x="300" y="95" width="80" height="40" rx="4" fill="#10B981" fill-opacity="0.3" stroke="#059669" stroke-width="2"/>
  <rect x="300" y="170" width="80" height="40" rx="4" fill="#10B981" fill-opacity="0.3" stroke="#059669" stroke-width="2"/>

  <!-- CCTV icons -->
  <circle cx="130" cy="40" r="12" fill="#3B82F6"/>
  <path d="M130 35 L135 40 L130 45 L125 40 Z" fill="white"/>

  <circle cx="270" cy="115" r="12" fill="#3B82F6"/>
  <path d="M270 110 L275 115 L270 120 L265 115 Z" fill="white"/>

  <!-- Entrance arrow -->
  <path d="M200 200 L200 220 M190 210 L200 220 L210 210" stroke="#F59E0B" stroke-width="3" stroke-linecap="round" stroke-linejoin="round"/>

  <!-- Title -->
  <text x="200" y="15" text-anchor="middle" font-family="Arial, sans-serif" font-size="12" font-weight="bold" fill="#374151">주차장 템플릿</text>
</svg>
