<svg width="8" height="8" viewBox="0 0 8 8" fill="none" xmlns="http://www.w3.org/2000/svg">
<path d="M4 1V7M7 1.2V6.8C7 6.85304 6.97893 6.90391 6.94142 6.94142C6.90391 6.97893 6.85304 7 6.8 7H1.2C1.14696 7 1.09609 6.97893 1.05858 6.94142C1.02107 6.90391 1 6.85304 1 6.8V1.2C1 1.14696 1.02107 1.09609 1.05858 1.05858C1.09609 1.02107 1.14696 1 1.2 1H6.8C6.85304 1 6.90391 1.02107 6.94142 1.05858C6.97893 1.09609 7 1.14696 7 1.2Z" stroke="#202123" stroke-width="0.5" stroke-linecap="round" stroke-linejoin="round"/>
<path d="M2 3.99992L2.5 3.33325L3 3.99992M5 3.99992L5.5 4.66659L6 3.99992" stroke="#202123" stroke-width="0.5" stroke-linecap="round" stroke-linejoin="round"/>
</svg>
