<svg width="12" height="26" viewBox="0 0 12 26" fill="none" xmlns="http://www.w3.org/2000/svg">
<path d="M10.2012 6.49609H8.52539V5.57031H6.25195V4.22266H8.52539V3.34375H6.35156C6.02344 4.1875 5.48438 4.89648 4.73438 5.4707C3.98438 6.04492 3.01367 6.48828 1.82227 6.80078L1.16602 5.47656C3.42773 4.90234 4.67188 3.88281 4.89844 2.41797H1.76367V1.08203H6.74414C6.74414 1.42188 6.72461 1.73437 6.68555 2.01953H8.52539V0.378906H10.2012V6.49609ZM2.90039 8.83984C2.90039 8.39453 3.05469 8.00586 3.36328 7.67383C3.67188 7.33789 4.10547 7.08008 4.66406 6.90039C5.22266 6.7168 5.86914 6.625 6.60352 6.625C7.32617 6.625 7.96484 6.7168 8.51953 6.90039C9.07812 7.08008 9.51172 7.33789 9.82031 7.67383C10.1289 8.00586 10.2832 8.39453 10.2832 8.83984C10.2832 9.28906 10.1289 9.68164 9.82031 10.0176C9.51172 10.3574 9.07812 10.6172 8.51953 10.7969C7.96484 10.9805 7.32617 11.0703 6.60352 11.0664C5.87305 11.0703 5.22656 10.9805 4.66406 10.7969C4.10547 10.6172 3.67188 10.3574 3.36328 10.0176C3.05469 9.68164 2.90039 9.28906 2.90039 8.83984ZM4.58789 8.83984C4.58789 9.14062 4.75977 9.36719 5.10352 9.51953C5.45117 9.66797 5.95117 9.74219 6.60352 9.74219C7.24414 9.74219 7.73438 9.66797 8.07422 9.51953C8.41797 9.36719 8.5918 9.14062 8.5957 8.83984C8.5918 8.53906 8.41992 8.31445 8.08008 8.16602C7.74414 8.01367 7.26367 7.9375 6.63867 7.9375C5.97461 7.9375 5.4668 8.01172 5.11523 8.16016C4.76367 8.30859 4.58789 8.53516 4.58789 8.83984ZM5.08008 17.6953C5.07617 18.2109 5.1582 18.7246 5.32617 19.2363C5.49805 19.748 5.76562 20.2227 6.12891 20.6602C6.49609 21.0938 6.95898 21.4414 7.51758 21.7031L6.5918 22.9688C6.04883 22.7266 5.58008 22.3828 5.18555 21.9375C4.79492 21.4883 4.48438 20.9668 4.25391 20.373C4.01172 21.0176 3.68359 21.5801 3.26953 22.0605C2.85547 22.5371 2.35742 22.8984 1.77539 23.1445L0.861328 21.8438C1.43555 21.5938 1.91211 21.2441 2.29102 20.7949C2.67383 20.3457 2.95312 19.8535 3.12891 19.3184C3.30859 18.7793 3.40039 18.2383 3.4043 17.6953V17.4258H1.25977V16.0898H3.39258V14.625H5.0918V16.0898H7.20117V17.4258H5.08008V17.6953ZM7.93945 14.3672H9.62695V18.4688H11.1504V19.875H9.62695V25.125H7.93945V14.3672Z" fill="white"/>
</svg>
